<mxfile host="app.diagrams.net" modified="2023-08-08T12:32:06.602Z" agent="Mozilla/5.0 (Windows NT 10.0; Win64; x64) AppleWebKit/537.36 (KHTML, like Gecko) Chrome/115.0.0.0 Safari/537.36" etag="B7PWUpbtnly0cyiUSMbw" version="21.5.1" type="device">
  <diagram name="Page-1" id="0nF_kIsVZiJPyhtbK4A9">
    <mxGraphModel dx="893" dy="499" grid="0" gridSize="10" guides="1" tooltips="1" connect="1" arrows="1" fold="1" page="1" pageScale="1" pageWidth="850" pageHeight="1100" math="0" shadow="0">
      <root>
        <mxCell id="0" />
        <mxCell id="1" parent="0" />
        <mxCell id="bAcqYjd8u7Joz-P1bIQZ-23" value="" style="rounded=0;whiteSpace=wrap;html=1;fillColor=none;" vertex="1" parent="1">
          <mxGeometry x="477.5" y="239" width="241" height="293" as="geometry" />
        </mxCell>
        <mxCell id="bAcqYjd8u7Joz-P1bIQZ-22" value="" style="rounded=0;whiteSpace=wrap;html=1;fillColor=none;" vertex="1" parent="1">
          <mxGeometry x="48" y="238" width="241" height="294" as="geometry" />
        </mxCell>
        <mxCell id="bAcqYjd8u7Joz-P1bIQZ-1" value="" style="rounded=0;whiteSpace=wrap;html=1;fillColor=#dae8fc;strokeColor=#6c8ebf;" vertex="1" parent="1">
          <mxGeometry x="70" y="300" width="189" height="210" as="geometry" />
        </mxCell>
        <mxCell id="bAcqYjd8u7Joz-P1bIQZ-2" value="" style="rounded=0;whiteSpace=wrap;html=1;fillColor=#f5f5f5;fontColor=#333333;strokeColor=#666666;" vertex="1" parent="1">
          <mxGeometry x="503" y="297" width="190" height="208" as="geometry" />
        </mxCell>
        <mxCell id="bAcqYjd8u7Joz-P1bIQZ-3" value="Python&amp;nbsp;" style="text;html=1;strokeColor=none;fillColor=none;align=center;verticalAlign=middle;whiteSpace=wrap;rounded=0;" vertex="1" parent="1">
          <mxGeometry x="135" y="304" width="60" height="30" as="geometry" />
        </mxCell>
        <mxCell id="bAcqYjd8u7Joz-P1bIQZ-4" value="PD" style="text;html=1;strokeColor=none;fillColor=none;align=center;verticalAlign=middle;whiteSpace=wrap;rounded=0;" vertex="1" parent="1">
          <mxGeometry x="576" y="301" width="60" height="30" as="geometry" />
        </mxCell>
        <mxCell id="bAcqYjd8u7Joz-P1bIQZ-10" style="edgeStyle=entityRelationEdgeStyle;rounded=0;orthogonalLoop=1;jettySize=auto;html=1;entryX=0;entryY=0.5;entryDx=0;entryDy=0;fillColor=#f8cecc;strokeColor=#b85450;strokeWidth=3;" edge="1" parent="1" source="bAcqYjd8u7Joz-P1bIQZ-5" target="bAcqYjd8u7Joz-P1bIQZ-9">
          <mxGeometry relative="1" as="geometry" />
        </mxCell>
        <mxCell id="bAcqYjd8u7Joz-P1bIQZ-5" value="Client" style="rounded=1;whiteSpace=wrap;html=1;" vertex="1" parent="1">
          <mxGeometry x="99.5" y="341" width="131" height="51" as="geometry" />
        </mxCell>
        <mxCell id="bAcqYjd8u7Joz-P1bIQZ-11" style="edgeStyle=entityRelationEdgeStyle;rounded=0;orthogonalLoop=1;jettySize=auto;html=1;entryX=0;entryY=0.5;entryDx=0;entryDy=0;fillColor=#d5e8d4;strokeColor=#82b366;endArrow=none;endFill=0;startArrow=classic;startFill=1;strokeWidth=3;" edge="1" parent="1" source="bAcqYjd8u7Joz-P1bIQZ-7" target="bAcqYjd8u7Joz-P1bIQZ-8">
          <mxGeometry relative="1" as="geometry" />
        </mxCell>
        <mxCell id="bAcqYjd8u7Joz-P1bIQZ-7" value="Server" style="rounded=1;whiteSpace=wrap;html=1;" vertex="1" parent="1">
          <mxGeometry x="99" y="435" width="131" height="47" as="geometry" />
        </mxCell>
        <mxCell id="bAcqYjd8u7Joz-P1bIQZ-8" value="Client&lt;br style=&quot;border-color: var(--border-color);&quot;&gt;" style="rounded=1;whiteSpace=wrap;html=1;" vertex="1" parent="1">
          <mxGeometry x="540.5" y="435" width="131" height="47" as="geometry" />
        </mxCell>
        <mxCell id="bAcqYjd8u7Joz-P1bIQZ-9" value="Server&lt;br style=&quot;border-color: var(--border-color);&quot;&gt;" style="rounded=1;whiteSpace=wrap;html=1;" vertex="1" parent="1">
          <mxGeometry x="540.5" y="343" width="131" height="47" as="geometry" />
        </mxCell>
        <mxCell id="bAcqYjd8u7Joz-P1bIQZ-13" value="Machine 1" style="text;html=1;strokeColor=none;fillColor=none;align=center;verticalAlign=middle;whiteSpace=wrap;rounded=0;" vertex="1" parent="1">
          <mxGeometry x="113.5" y="244" width="116.5" height="30" as="geometry" />
        </mxCell>
        <mxCell id="bAcqYjd8u7Joz-P1bIQZ-14" value="&lt;font style=&quot;font-size: 8px;&quot;&gt;&quot;/pd Hello from python client!&quot;&lt;/font&gt;" style="rounded=0;whiteSpace=wrap;html=1;rotation=15;" vertex="1" parent="1">
          <mxGeometry x="312" y="342" width="110" height="25" as="geometry" />
        </mxCell>
        <mxCell id="bAcqYjd8u7Joz-P1bIQZ-15" value="&lt;font style=&quot;font-size: 8px;&quot;&gt;&quot;/pd Hello from python client!&quot;&lt;/font&gt;" style="rounded=0;whiteSpace=wrap;html=1;rotation=15;" vertex="1" parent="1">
          <mxGeometry x="323" y="350" width="110" height="25" as="geometry" />
        </mxCell>
        <mxCell id="bAcqYjd8u7Joz-P1bIQZ-16" value="&lt;font style=&quot;font-size: 8px;&quot;&gt;&quot;/pd Hello from python client!&quot;&lt;/font&gt;" style="rounded=0;whiteSpace=wrap;html=1;rotation=15;" vertex="1" parent="1">
          <mxGeometry x="337" y="361" width="110" height="25" as="geometry" />
        </mxCell>
        <mxCell id="bAcqYjd8u7Joz-P1bIQZ-17" value="&lt;font style=&quot;font-size: 8px;&quot;&gt;&quot;/pd Hello from python client!&quot;&lt;/font&gt;" style="rounded=0;whiteSpace=wrap;html=1;rotation=15;" vertex="1" parent="1">
          <mxGeometry x="348" y="367" width="110" height="25" as="geometry" />
        </mxCell>
        <mxCell id="bAcqYjd8u7Joz-P1bIQZ-18" value="&lt;font style=&quot;font-size: 8px;&quot;&gt;&quot;/py Hello from PD client!&quot;&lt;/font&gt;" style="rounded=0;whiteSpace=wrap;html=1;rotation=-15;" vertex="1" parent="1">
          <mxGeometry x="334" y="447.48999999999995" width="107.6" height="22.02" as="geometry" />
        </mxCell>
        <mxCell id="bAcqYjd8u7Joz-P1bIQZ-24" value="Machine 2" style="text;html=1;strokeColor=none;fillColor=none;align=center;verticalAlign=middle;whiteSpace=wrap;rounded=0;" vertex="1" parent="1">
          <mxGeometry x="547.75" y="244" width="116.5" height="30" as="geometry" />
        </mxCell>
      </root>
    </mxGraphModel>
  </diagram>
</mxfile>
